<?xml version="1.0" encoding="utf-8"?>
<!-- Generator: Adobe Illustrator 18.0.0, SVG Export Plug-In . SVG Version: 6.00 Build 0)  -->
<!DOCTYPE svg PUBLIC "-//W3C//DTD SVG 1.1//EN" "http://www.w3.org/Graphics/SVG/1.1/DTD/svg11.dtd">
<svg version="1.1" id="Layer_1" xmlns="http://www.w3.org/2000/svg" xmlns:xlink="http://www.w3.org/1999/xlink" x="0px" y="0px"
	 viewBox="0 0 234 32" enable-background="new 0 0 234 32" xml:space="preserve">
<g>
	<path fill="#6C54A3" d="M12.2,0.5C9,0.5,6.3,1.4,4,3.1c-2.7,2-4,4.7-4,7.8v10.2c0,3.1,1.3,5.8,4,7.8c2.3,1.7,5.1,2.6,8.2,2.6H234
		v-31L12.2,0.5z"/>
	<path fill="#FFFFFF" d="M228.6,26.1v-5.1V5.9h-7.7l-9.2,14l-9.7-14h-7.4v5.4h5.5l9.8,14.9h3.6l9.7-14.9v14.9H228.6z M194.6,13.7
		v12.5h5.4v-7.5v-5H194.6z M180.7,11.2c1.3,0,2.3,0.3,3.2,0.8c0.8,0.5,1.5,1.1,1.5,1.9v3.9c0,0.8-0.5,1.4-1.4,2
		c-0.9,0.6-1.9,0.8-3.1,0.8h-14.2c-1.3,0-2.4-0.3-3.2-0.8c-0.9-0.6-1.3-1.2-1.3-2v-3.9v-0.3h-5.4v7.4c0,1.4,0.7,2.6,2,3.6
		c1.3,1,2.9,1.5,4.8,1.5H184c1.9,0,3.5-0.5,4.8-1.5c1.3-1,2-2.2,2-3.6V10.9c0-1.4-0.7-2.6-2-3.6c-1.3-1-2.9-1.5-4.8-1.5h-20.4
		c-1.9,0-3.5,0.5-4.8,1.5c-1.3,1-2,2.2-2,3.6v0.3L180.7,11.2z M152.9,11.2V5.9h-27.2c-1.9,0-3.5,0.5-4.8,1.5c-1.3,1-2,2.2-2,3.6v0.3
		L152.9,11.2z M143.1,20.6h-14.2c-1.3,0-2.4-0.3-3.2-0.8c-0.9-0.6-1.3-1.2-1.3-2v-3.9v-0.3h-5.4v7.4c0,1.4,0.7,2.6,2,3.6
		c1.3,1,2.9,1.5,4.8,1.5h20.4h6.8v-5.5h-4.8H143.1z M115.1,11.2V5.9H87.9c-1.9,0-3.5,0.5-4.8,1.5c-1.3,1-2,2.2-2,3.6v0.3H115.1z
		 M81.1,21.1c0,1.4,0.7,2.6,2,3.6c1.3,1,2.9,1.5,4.8,1.5h20.4h6.8v-5.5h-4.8h-5.1H91h-4.5v-2.3h28.6v-4.7h-34V21.1z M77.2,5.9h-34
		v5.4h24h1.9h8.1V5.9z M57.3,20.8l19.9-7.1H62.9l-19.7,7.1v5.4h6.7h20.5h6.8v-5.4H57.3z M13.4,11.2h1.9h24V5.9H12.2
		c-1.9,0-3.5,0.5-4.8,1.5c-1.3,1-2,2.2-2,3.6v0.3H13.4z M34.6,20.6h4.8v5.5h-6.8H12.2c-1.9,0-3.5-0.5-4.8-1.5c-1.3-1-2-2.2-2-3.6
		v-7.6h34v4.8H10.8v2.3h4.5h14.2H34.6z"/>
</g>
</svg>
